<?xml version="1.0" standalone="no"?>
<!DOCTYPE svg PUBLIC "-//W3C//DTD SVG 20010904//EN"
 "http://www.w3.org/TR/2001/REC-SVG-20010904/DTD/svg10.dtd">
<svg version="1.0" xmlns="http://www.w3.org/2000/svg"
 width="1024.000000pt" height="1024.000000pt" viewBox="0 0 1024.000000 1024.000000"
 preserveAspectRatio="xMidYMid meet">
<metadata>
Created by potrace 1.11, written by Peter Selinger 2001-2013
</metadata>
<g transform="translate(0.000000,1024.000000) scale(0.100000,-0.100000)"
fill="#000000" stroke="none">
<path d="M6314 9971 c-46 -9 -108 -83 -117 -140 -3 -16 -12 -45 -21 -62 -19
-38 -20 -61 -4 -77 8 -8 8 -15 -1 -26 -7 -8 -13 -30 -13 -48 0 -18 -4 -38 -9
-43 -4 -6 -10 -31 -13 -57 -3 -25 -9 -53 -12 -62 -3 -9 -2 -16 4 -16 11 0 7
-96 -6 -160 -6 -25 -8 -49 -4 -54 3 -5 7 -33 9 -61 5 -62 -15 -79 -51 -46 -35
33 -87 50 -115 39 -17 -6 -27 -6 -29 1 -7 21 -44 61 -56 61 -7 0 -25 23 -40
52 -15 29 -48 85 -72 124 -43 68 -48 73 -96 84 -33 8 -52 19 -55 30 -5 18 -71
43 -150 56 -16 2 -48 9 -73 14 -74 16 -110 19 -115 10 -6 -9 -45 -1 -45 9 0
15 -73 11 -90 -4 -22 -20 -68 -15 -85 9 -14 19 -40 23 -67 11 -11 -4 -18 -3
-18 4 0 7 -35 11 -106 11 l-106 0 -66 -44 c-47 -32 -82 -47 -117 -52 -57 -7
-94 -29 -96 -55 -4 -62 -1 -75 26 -107 18 -21 23 -37 19 -58 -6 -34 -21 -54
-40 -54 -8 0 -32 -16 -54 -36 -35 -32 -44 -35 -72 -29 -18 4 -54 8 -80 8 -27
0 -48 4 -48 9 0 4 -4 8 -10 8 -5 0 -10 -6 -10 -14 0 -8 -8 -17 -17 -21 -10 -3
-33 -18 -51 -33 -30 -25 -33 -33 -44 -117 -6 -50 -12 -127 -14 -172 -2 -46 -7
-91 -12 -100 -5 -10 -12 -38 -16 -63 -6 -42 -10 -47 -62 -74 -83 -44 -87 -56
-88 -261 -1 -82 -5 -162 -10 -178 -6 -22 -2 -41 22 -90 16 -34 39 -71 51 -81
13 -12 21 -31 21 -51 0 -41 -22 -51 -115 -54 -38 -2 -83 -4 -100 -6 -16 -2
-56 -6 -88 -9 -75 -7 -176 -50 -205 -87 -13 -16 -27 -27 -32 -24 -5 3 -35 8
-67 11 -32 4 -65 8 -73 9 -8 1 -35 -4 -60 -12 -25 -8 -53 -16 -63 -18 -27 -6
-87 -45 -87 -56 0 -6 -11 -21 -25 -35 -14 -14 -40 -49 -59 -78 -48 -75 -95
-126 -117 -126 -24 0 -56 -35 -80 -89 -18 -42 -18 -44 0 -67 15 -19 18 -38 16
-111 -2 -48 1 -97 5 -108 5 -14 -1 -36 -22 -73 -31 -56 -35 -86 -24 -185 5
-49 3 -63 -14 -87 -11 -15 -20 -33 -20 -39 0 -6 -17 -19 -37 -30 -50 -25 -108
-87 -128 -133 -15 -37 -14 -126 2 -151 18 -30 20 -90 3 -134 -9 -24 -21 -48
-27 -51 -5 -4 -16 -20 -24 -37 -12 -25 -20 -29 -59 -32 -71 -4 -92 -39 -92
-148 -1 -74 33 -162 66 -174 20 -8 28 -54 26 -151 -3 -135 -7 -207 -12 -220
-3 -8 -11 -35 -18 -59 -7 -26 -18 -45 -29 -48 -29 -7 -61 -86 -62 -152 -1 -47
7 -80 40 -167 75 -193 83 -214 92 -220 5 -3 9 -12 9 -21 0 -41 77 -172 124
-212 10 -9 34 -29 53 -45 31 -26 40 -29 99 -27 75 2 148 -27 197 -78 70 -72
110 -88 189 -76 32 5 47 -2 129 -55 51 -33 109 -62 129 -66 49 -8 71 -20 119
-65 49 -46 63 -77 53 -116 -10 -38 -7 -80 6 -96 6 -7 14 -40 18 -72 3 -32 17
-83 30 -113 13 -30 24 -60 24 -68 0 -7 -17 -25 -37 -41 -21 -15 -46 -35 -56
-45 -10 -10 -26 -18 -36 -18 -9 0 -27 -10 -38 -22 -11 -13 -30 -31 -42 -41
-17 -14 -19 -21 -11 -36 13 -25 13 -44 0 -36 -16 10 -40 -15 -40 -41 0 -13 8
-39 17 -59 15 -32 20 -35 60 -35 37 0 43 -3 49 -24 3 -14 17 -32 30 -41 31
-20 30 -44 -4 -76 -31 -30 -86 -135 -77 -149 3 -5 1 -11 -3 -14 -5 -3 -5 -26
0 -53 5 -26 11 -64 13 -84 6 -49 50 -145 87 -192 20 -25 33 -54 35 -80 9 -86
134 -220 332 -355 63 -42 78 -49 99 -41 26 10 42 5 42 -14 0 -7 8 -29 18 -48
12 -23 17 -49 14 -74 -3 -24 0 -40 9 -45 16 -11 13 -87 -5 -115 -13 -21 -11
-72 4 -90 16 -20 32 -141 23 -176 -5 -19 -8 -50 -6 -69 6 -69 6 -95 0 -127 -4
-18 -3 -34 3 -38 5 -3 10 -17 10 -31 0 -13 5 -24 12 -24 11 0 23 -10 72 -57
17 -17 26 -19 34 -11 8 8 13 7 18 -5 3 -9 20 -19 37 -22 18 -4 39 -12 48 -18
17 -13 22 -47 6 -47 -5 0 -20 -9 -34 -20 -17 -13 -38 -19 -68 -18 -49 3 -62
-8 -136 -109 -36 -48 -117 -113 -141 -113 -15 0 -67 -43 -63 -50 3 -4 -9 -13
-25 -20 -36 -15 -61 -79 -41 -104 7 -8 10 -20 6 -26 -3 -5 0 -17 7 -25 7 -8
19 -21 26 -30 10 -11 23 -14 47 -9 19 3 35 1 39 -5 5 -8 13 -8 27 -1 10 6 19
8 19 4 0 -4 8 0 18 8 9 9 46 30 82 47 76 37 110 73 152 159 17 34 46 79 64 99
19 20 34 43 34 49 0 7 7 17 14 21 8 5 26 33 40 64 23 52 47 76 66 64 14 -8 23
-96 25 -232 1 -76 7 -138 13 -145 6 -7 13 -33 17 -57 8 -53 18 -72 70 -126 64
-67 242 -146 396 -176 53 -11 61 -10 80 7 19 17 22 17 107 -5 97 -25 89 -23
227 -50 162 -32 270 -43 445 -46 208 -3 286 12 356 71 82 69 96 77 130 78 18
1 36 5 40 9 4 4 16 7 27 7 10 0 85 22 165 49 107 35 170 50 232 55 47 4 92 9
100 11 8 2 31 6 50 9 91 14 301 108 370 165 19 16 47 40 62 53 40 33 102 123
133 193 15 33 32 69 38 80 6 11 12 68 13 127 4 163 -33 315 -116 479 -18 35
-41 81 -51 101 -11 20 -23 40 -29 43 -6 4 -8 10 -5 15 3 5 1 11 -5 15 -15 9
-12 25 5 25 9 0 31 16 50 36 19 20 35 32 35 27 0 -4 4 -2 9 5 14 22 -7 101
-49 186 -46 94 -87 146 -117 146 -20 0 -33 17 -33 46 0 8 5 14 11 14 14 0 74
50 74 62 0 14 29 28 47 22 9 -2 19 0 23 6 5 8 15 4 31 -11 l24 -23 30 29 c43
41 59 123 36 190 -26 77 -48 125 -58 125 -4 0 -8 7 -8 16 0 10 -6 14 -15 10
-8 -3 -15 -2 -16 2 0 4 -2 21 -4 37 -2 17 -5 49 -5 72 0 23 -5 45 -10 48 -16
10 -12 25 5 19 25 -10 74 34 85 77 6 22 9 48 6 57 -3 9 1 29 8 44 13 24 12 31
-5 63 -15 28 -17 40 -9 50 9 11 4 30 -22 82 -30 61 -33 72 -24 108 5 22 17 53
27 70 40 64 44 76 30 85 -9 5 -15 35 -18 85 -3 74 -2 78 29 117 26 34 32 50
34 97 1 31 7 69 13 86 8 18 10 51 6 85 -4 40 -1 63 10 84 21 40 19 79 -5 94
-28 17 -25 47 11 100 33 50 46 129 27 165 -17 33 -80 97 -94 97 -8 0 -15 3
-15 8 -1 4 -3 20 -5 36 -2 16 -6 36 -10 45 -5 9 -9 27 -10 41 -1 14 -8 44 -14
67 -7 24 -9 51 -5 60 5 10 7 21 7 26 -1 4 3 7 8 7 6 0 15 11 20 25 5 14 15 25
21 25 7 0 20 7 30 16 9 8 34 16 54 18 42 2 55 17 55 67 0 83 -80 247 -158 323
-30 30 -43 36 -68 33 -18 -3 -38 -8 -44 -12 -8 -5 -18 -1 -25 8 -7 9 -29 19
-51 23 -44 7 -61 17 -69 45 -4 10 -17 22 -31 25 -13 3 -24 12 -24 20 0 7 -6
11 -13 8 -17 -6 -39 40 -30 63 3 10 12 25 20 34 21 25 53 91 53 110 0 9 8 27
19 40 10 13 21 44 24 69 3 25 6 46 6 47 1 1 8 9 17 17 8 9 17 39 20 68 8 79 7
89 -11 102 -14 10 -15 18 -5 58 9 36 18 49 41 58 15 7 28 15 27 19 -1 3 2 13
6 22 6 14 12 15 37 5 26 -9 32 -8 40 7 6 9 19 17 29 17 11 0 20 4 20 9 0 5 12
11 28 13 25 3 27 6 28 53 0 40 -5 58 -29 90 -37 51 -57 99 -52 125 4 23 53 90
66 90 5 0 9 7 9 15 0 8 7 15 15 15 8 0 15 4 15 9 0 9 38 24 54 22 16 -3 36 22
36 44 0 12 7 28 15 35 9 7 14 19 11 27 -4 10 1 12 19 7 22 -5 26 -2 31 25 4
17 14 33 25 36 22 7 27 63 7 83 -13 13 -21 112 -9 112 4 0 8 7 8 15 0 11 -6
13 -20 9 -12 -4 -17 -2 -13 4 3 5 0 12 -8 15 -16 6 -6 87 18 139 13 29 20 78
17 114 -1 5 -9 19 -18 30 -20 21 -26 51 -16 74 3 8 7 32 8 53 2 20 3 38 4 40
2 2 5 17 15 82 2 11 4 27 5 36 1 21 45 41 59 27 13 -13 32 -2 32 21 0 10 12
28 26 42 23 21 25 28 18 74 -3 27 -13 64 -22 80 -22 43 -24 65 -20 243 l4 122
-35 36 c-19 19 -48 42 -65 51 -27 14 -31 14 -41 -1 -14 -18 -25 -11 -25 15 0
16 25 34 43 31 4 -1 7 5 7 13 0 8 -4 15 -10 15 -5 0 -10 5 -10 11 0 6 8 8 19
4 15 -4 24 1 34 21 13 25 13 33 -2 73 -9 26 -20 49 -25 52 -13 10 1 39 18 39
20 0 27 60 10 86 -12 19 -10 25 11 50 20 23 23 35 18 73 -3 25 -9 52 -13 60
-8 14 3 43 27 68 6 7 9 23 6 36 -3 12 -5 33 -5 47 0 26 -33 70 -53 70 -6 0
-19 14 -29 31 -11 18 -23 28 -32 25 -8 -3 -13 -2 -13 2 3 20 -2 43 -9 38 -14
-8 -12 42 3 78 23 55 19 81 -17 110 -18 15 -46 40 -63 56 -16 16 -41 35 -55
42 -22 12 -90 53 -208 126 -56 34 -144 73 -167 74 -11 0 -62 14 -114 30 -52
16 -111 31 -132 33 -21 1 -53 12 -72 24 -19 11 -39 21 -46 21 -6 0 -11 4 -11
9 0 36 -156 90 -205 71 -20 -8 -44 -8 -79 0 -52 10 -237 18 -272 11z"/>
</g>
</svg>
